<svg width="24" height="24" viewBox="0 0 24 24" fill="none" xmlns="http://www.w3.org/2000/svg">
<path d="M7.23336 11.0882C7.00144 11.0882 6.77472 11.1569 6.58189 11.2858C6.38906 11.4146 6.23876 11.5978 6.15001 11.812C6.06126 12.0263 6.03804 12.2621 6.08328 12.4895C6.12853 12.717 6.24021 12.9259 6.4042 13.0899C6.56819 13.2539 6.77713 13.3656 7.00459 13.4109C7.23205 13.4561 7.46783 13.4329 7.68209 13.3441C7.89636 13.2554 8.07949 13.1051 8.20834 12.9122C8.33719 12.7194 8.40596 12.4927 8.40596 12.2608C8.40596 11.9498 8.28242 11.6515 8.06251 11.4316C7.84261 11.2117 7.54435 11.0882 7.23336 11.0882ZM11.9238 11.0882C11.6919 11.0882 11.4651 11.1569 11.2723 11.2858C11.0795 11.4146 10.9292 11.5978 10.8404 11.812C10.7517 12.0263 10.7285 12.2621 10.7737 12.4895C10.8189 12.717 10.9306 12.9259 11.0946 13.0899C11.2586 13.2539 11.4675 13.3656 11.695 13.4109C11.9225 13.4561 12.1582 13.4329 12.3725 13.3441C12.5868 13.2554 12.7699 13.1051 12.8988 12.9122C13.0276 12.7194 13.0964 12.4927 13.0964 12.2608C13.0964 11.9498 12.9728 11.6515 12.7529 11.4316C12.533 11.2117 12.2348 11.0882 11.9238 11.0882ZM16.6142 11.0882C16.3823 11.0882 16.1556 11.1569 15.9627 11.2858C15.7699 11.4146 15.6196 11.5978 15.5309 11.812C15.4421 12.0263 15.4189 12.2621 15.4641 12.4895C15.5094 12.717 15.621 12.9259 15.785 13.0899C15.949 13.2539 16.158 13.3656 16.3854 13.4109C16.6129 13.4561 16.8487 13.4329 17.0629 13.3441C17.2772 13.2554 17.4603 13.1051 17.5892 12.9122C17.718 12.7194 17.7868 12.4927 17.7868 12.2608C17.7868 11.9498 17.6633 11.6515 17.4434 11.4316C17.2234 11.2117 16.9252 11.0882 16.6142 11.0882ZM11.9238 0.534729C10.3839 0.534729 8.85908 0.838032 7.43641 1.42732C6.01374 2.01661 4.72107 2.88035 3.63221 3.96921C1.43314 6.16827 0.197724 9.15084 0.197724 12.2608C0.187473 14.9685 1.12501 17.5944 2.84781 19.6834L0.502602 22.0286C0.339894 22.1935 0.229673 22.4029 0.185848 22.6303C0.142023 22.8578 0.166557 23.0932 0.256355 23.3067C0.353749 23.5177 0.511636 23.695 0.709973 23.8161C0.908311 23.9372 1.13815 23.9966 1.37033 23.9868H11.9238C15.0337 23.9868 18.0163 22.7514 20.2153 20.5524C22.4144 18.3533 23.6498 15.3707 23.6498 12.2608C23.6498 9.15084 22.4144 6.16827 20.2153 3.96921C18.0163 1.77015 15.0337 0.534729 11.9238 0.534729ZM11.9238 21.6416H4.19631L5.28683 20.5511C5.39763 20.4425 5.48577 20.313 5.54616 20.1701C5.60654 20.0272 5.63797 19.8737 5.63861 19.7186C5.63421 19.4093 5.50777 19.1142 5.28683 18.8977C3.75141 17.364 2.79525 15.3454 2.58127 13.1857C2.36729 11.0261 2.90872 8.85906 4.11332 7.05385C5.31792 5.24865 7.11116 3.91694 9.18752 3.28563C11.2639 2.65432 13.4949 2.76245 15.5005 3.59161C17.506 4.42077 19.1621 5.91965 20.1865 7.8329C21.2108 9.74614 21.5402 11.9554 21.1183 14.0842C20.6965 16.213 19.5496 18.1297 17.873 19.5078C16.1965 20.8858 14.094 21.6399 11.9238 21.6416Z" fill="#404040"/>
</svg>
