<svg width="25" height="25" viewBox="0 0 25 25" fill="none" xmlns="http://www.w3.org/2000/svg">
<path d="M6.18284 15.6799C7.89019 15.6799 9.27426 14.2958 9.27426 12.5884C9.27426 10.8811 7.89019 9.49702 6.18284 9.49702C4.4755 9.49702 3.09143 10.8811 3.09143 12.5884C3.09143 14.2958 4.4755 15.6799 6.18284 15.6799Z" stroke="black" stroke-width="1.70561" stroke-linecap="round" stroke-linejoin="round"/>
<path d="M17.0028 22.6355C18.7101 22.6355 20.0942 21.2515 20.0942 19.5441C20.0942 17.8368 18.7101 16.4527 17.0028 16.4527C15.2954 16.4527 13.9114 17.8368 13.9114 19.5441C13.9114 21.2515 15.2954 22.6355 17.0028 22.6355Z" stroke="black" stroke-width="1.70561" stroke-linecap="round" stroke-linejoin="round"/>
<path d="M17.0028 8.72416C18.7101 8.72416 20.0942 7.34009 20.0942 5.63275C20.0942 3.92541 18.7101 2.54134 17.0028 2.54134C15.2954 2.54134 13.9114 3.92541 13.9114 5.63275C13.9114 7.34009 15.2954 8.72416 17.0028 8.72416Z" stroke="black" stroke-width="1.70561" stroke-linecap="round" stroke-linejoin="round"/>
<path d="M14.4026 7.30432L8.78284 10.917" stroke="black" stroke-width="1.70561" stroke-linecap="round" stroke-linejoin="round"/>
<path d="M8.78284 14.2599L14.4026 17.8725" stroke="black" stroke-width="1.70561" stroke-linecap="round" stroke-linejoin="round"/>
</svg>
